<mxfile host="app.diagrams.net" modified="2024-02-13T15:07:45.699Z" agent="Mozilla/5.0 (Macintosh; Intel Mac OS X 10_15_7) AppleWebKit/537.36 (KHTML, like Gecko) Chrome/121.0.0.0 Safari/537.36" version="23.1.1" etag="uGArZ4v6d2gcTRQ8dOJ0" type="github">
  <diagram name="Page-1" id="msuex_oYxy-Rh6l25dGI">
    <mxGraphModel>
      <root>
        <mxCell id="0" />
        <mxCell id="1" parent="0" />
      </root>
    </mxGraphModel>
  </diagram>
</mxfile>
